<svg width="16" height="9" viewBox="0 0 16 9" fill="none" xmlns="http://www.w3.org/2000/svg">
<path d="M0.861939 4.47095C0.736958 4.34594 0.666748 4.1764 0.666748 3.99962C0.666748 3.82284 0.736958 3.65331 0.861939 3.52829L4.19527 0.194954C4.32101 0.0735153 4.48941 0.00631876 4.66421 0.0078377C4.839 0.00935665 5.00621 0.0794694 5.12982 0.203075C5.25342 0.32668 5.32354 0.493888 5.32505 0.668686C5.32657 0.843484 5.25938 1.01189 5.13794 1.13762L2.94261 3.33295H14.6666C14.8434 3.33295 15.013 3.40319 15.138 3.52822C15.263 3.65324 15.3333 3.82281 15.3333 3.99962C15.3333 4.17643 15.263 4.346 15.138 4.47102C15.013 4.59605 14.8434 4.66629 14.6666 4.66629H2.94261L5.13794 6.86162C5.20161 6.92312 5.2524 6.99668 5.28734 7.07802C5.32228 7.15935 5.34067 7.24683 5.34144 7.33535C5.34221 7.42387 5.32534 7.51166 5.29182 7.59359C5.2583 7.67552 5.2088 7.74996 5.1462 7.81255C5.08361 7.87515 5.00917 7.92465 4.92724 7.95817C4.84531 7.99169 4.75752 8.00856 4.669 8.00779C4.58048 8.00702 4.49301 7.98863 4.41167 7.95369C4.33033 7.91875 4.25677 7.86796 4.19527 7.80429L0.861939 4.47095Z" fill="#2979FF"/>
</svg>
