<svg width="1413" height="665" viewBox="0 0 1413 665" fill="none" xmlns="http://www.w3.org/2000/svg">
<circle cx="255.5" cy="514.5" r="3.5" fill="#E7F0FC"/>
<circle cx="255.5" cy="535.5" r="3.5" fill="#E7F0FC"/>
<circle cx="255.5" cy="556.5" r="3.5" fill="#E7F0FC"/>
<circle cx="255.5" cy="577.5" r="3.5" fill="#E7F0FC"/>
<circle cx="255.5" cy="598.5" r="3.5" fill="#E7F0FC"/>
<circle cx="255.5" cy="619.5" r="3.5" fill="#E7F0FC"/>
<circle cx="255.5" cy="640.5" r="3.5" fill="#E7F0FC"/>
<circle cx="255.5" cy="661.5" r="3.5" fill="#E7F0FC"/>
<circle cx="276.5" cy="514.5" r="3.5" fill="#E7F0FC"/>
<circle cx="276.5" cy="535.5" r="3.5" fill="#E7F0FC"/>
<circle cx="276.5" cy="556.5" r="3.5" fill="#E7F0FC"/>
<circle cx="276.5" cy="577.5" r="3.5" fill="#E7F0FC"/>
<circle cx="276.5" cy="598.5" r="3.5" fill="#E7F0FC"/>
<circle cx="276.5" cy="619.5" r="3.5" fill="#E7F0FC"/>
<circle cx="276.5" cy="640.5" r="3.5" fill="#E7F0FC"/>
<circle cx="276.5" cy="661.5" r="3.5" fill="#E7F0FC"/>
<circle cx="297.5" cy="514.5" r="3.5" fill="#E7F0FC"/>
<circle cx="297.5" cy="535.5" r="3.5" fill="#E7F0FC"/>
<circle cx="297.5" cy="556.5" r="3.5" fill="#E7F0FC"/>
<circle cx="297.5" cy="577.5" r="3.5" fill="#E7F0FC"/>
<circle cx="297.5" cy="598.5" r="3.5" fill="#E7F0FC"/>
<circle cx="297.5" cy="619.5" r="3.5" fill="#E7F0FC"/>
<circle cx="297.5" cy="640.5" r="3.5" fill="#E7F0FC"/>
<circle cx="297.5" cy="661.5" r="3.5" fill="#E7F0FC"/>
<circle cx="318.5" cy="514.5" r="3.5" fill="#E7F0FC"/>
<circle cx="318.5" cy="535.5" r="3.5" fill="#E7F0FC"/>
<circle cx="318.5" cy="556.5" r="3.5" fill="#E7F0FC"/>
<circle cx="318.5" cy="577.5" r="3.5" fill="#E7F0FC"/>
<circle cx="318.5" cy="598.5" r="3.5" fill="#E7F0FC"/>
<circle cx="318.5" cy="619.5" r="3.5" fill="#E7F0FC"/>
<circle cx="318.5" cy="640.5" r="3.5" fill="#E7F0FC"/>
<circle cx="318.5" cy="661.5" r="3.5" fill="#E7F0FC"/>
<circle cx="339.5" cy="514.5" r="3.5" fill="#E7F0FC"/>
<circle cx="339.5" cy="535.5" r="3.5" fill="#E7F0FC"/>
<circle cx="339.5" cy="556.5" r="3.5" fill="#E7F0FC"/>
<circle cx="339.5" cy="577.5" r="3.5" fill="#E7F0FC"/>
<circle cx="339.5" cy="598.5" r="3.5" fill="#E7F0FC"/>
<circle cx="339.5" cy="619.5" r="3.5" fill="#E7F0FC"/>
<circle cx="339.5" cy="640.5" r="3.5" fill="#E7F0FC"/>
<circle cx="339.5" cy="661.5" r="3.5" fill="#E7F0FC"/>
<circle cx="360.5" cy="514.5" r="3.5" fill="#E7F0FC"/>
<circle cx="360.5" cy="535.5" r="3.5" fill="#E7F0FC"/>
<circle cx="360.5" cy="556.5" r="3.5" fill="#E7F0FC"/>
<circle cx="360.5" cy="577.5" r="3.5" fill="#E7F0FC"/>
<circle cx="360.5" cy="598.5" r="3.5" fill="#E7F0FC"/>
<circle cx="360.5" cy="619.5" r="3.5" fill="#E7F0FC"/>
<circle cx="360.5" cy="640.5" r="3.5" fill="#E7F0FC"/>
<circle cx="360.5" cy="661.5" r="3.5" fill="#E7F0FC"/>
<circle cx="381.5" cy="514.5" r="3.5" fill="#E7F0FC"/>
<circle cx="381.5" cy="535.5" r="3.5" fill="#E7F0FC"/>
<circle cx="381.5" cy="556.5" r="3.5" fill="#E7F0FC"/>
<circle cx="381.5" cy="577.5" r="3.5" fill="#E7F0FC"/>
<circle cx="381.5" cy="598.5" r="3.5" fill="#E7F0FC"/>
<circle cx="381.5" cy="619.5" r="3.5" fill="#E7F0FC"/>
<circle cx="381.5" cy="640.5" r="3.5" fill="#E7F0FC"/>
<circle cx="381.5" cy="661.5" r="3.5" fill="#E7F0FC"/>
<circle cx="402.5" cy="514.5" r="3.5" fill="#E7F0FC"/>
<circle cx="402.5" cy="535.5" r="3.5" fill="#E7F0FC"/>
<circle cx="402.5" cy="556.5" r="3.5" fill="#E7F0FC"/>
<circle cx="402.5" cy="577.5" r="3.5" fill="#E7F0FC"/>
<circle cx="402.5" cy="598.5" r="3.5" fill="#E7F0FC"/>
<circle cx="402.5" cy="619.5" r="3.5" fill="#E7F0FC"/>
<circle cx="402.5" cy="640.5" r="3.5" fill="#E7F0FC"/>
<circle cx="402.5" cy="661.5" r="3.5" fill="#E7F0FC"/>
<circle cx="423.5" cy="514.5" r="3.5" fill="#E7F0FC"/>
<circle cx="423.5" cy="535.5" r="3.5" fill="#E7F0FC"/>
<circle cx="423.5" cy="556.5" r="3.5" fill="#E7F0FC"/>
<circle cx="423.5" cy="577.5" r="3.5" fill="#E7F0FC"/>
<circle cx="423.5" cy="598.5" r="3.5" fill="#E7F0FC"/>
<circle cx="423.5" cy="619.5" r="3.5" fill="#E7F0FC"/>
<circle cx="423.5" cy="640.5" r="3.5" fill="#E7F0FC"/>
<circle cx="423.5" cy="661.5" r="3.5" fill="#E7F0FC"/>
<circle cx="444.5" cy="514.5" r="3.5" fill="#E7F0FC"/>
<circle cx="444.5" cy="535.5" r="3.5" fill="#E7F0FC"/>
<circle cx="444.5" cy="556.5" r="3.5" fill="#E7F0FC"/>
<circle cx="444.5" cy="577.5" r="3.5" fill="#E7F0FC"/>
<circle cx="444.5" cy="598.5" r="3.5" fill="#E7F0FC"/>
<circle cx="444.5" cy="619.5" r="3.5" fill="#E7F0FC"/>
<circle cx="444.5" cy="640.5" r="3.5" fill="#E7F0FC"/>
<circle cx="444.5" cy="661.5" r="3.5" fill="#E7F0FC"/>
<circle cx="46.5" cy="514.5" r="3.5" fill="#E7F0FC"/>
<circle cx="46.5" cy="535.5" r="3.5" fill="#E7F0FC"/>
<circle cx="46.5" cy="556.5" r="3.5" fill="#E7F0FC"/>
<circle cx="46.5" cy="577.5" r="3.5" fill="#E7F0FC"/>
<circle cx="46.5" cy="598.5" r="3.5" fill="#E7F0FC"/>
<circle cx="46.5" cy="619.5" r="3.5" fill="#E7F0FC"/>
<circle cx="46.5" cy="640.5" r="3.5" fill="#E7F0FC"/>
<circle cx="46.5" cy="661.5" r="3.5" fill="#E7F0FC"/>
<circle cx="67.5" cy="514.5" r="3.5" fill="#E7F0FC"/>
<circle cx="67.5" cy="535.5" r="3.5" fill="#E7F0FC"/>
<circle cx="67.5" cy="556.5" r="3.5" fill="#E7F0FC"/>
<circle cx="67.5" cy="577.5" r="3.5" fill="#E7F0FC"/>
<circle cx="67.5" cy="598.5" r="3.5" fill="#E7F0FC"/>
<circle cx="67.5" cy="619.5" r="3.5" fill="#E7F0FC"/>
<circle cx="67.5" cy="640.5" r="3.5" fill="#E7F0FC"/>
<circle cx="67.5" cy="661.5" r="3.5" fill="#E7F0FC"/>
<circle cx="88.5" cy="514.5" r="3.5" fill="#E7F0FC"/>
<circle cx="88.5" cy="535.5" r="3.5" fill="#E7F0FC"/>
<circle cx="88.5" cy="556.5" r="3.5" fill="#E7F0FC"/>
<circle cx="88.5" cy="577.5" r="3.5" fill="#E7F0FC"/>
<circle cx="88.5" cy="598.5" r="3.5" fill="#E7F0FC"/>
<circle cx="88.5" cy="619.5" r="3.5" fill="#E7F0FC"/>
<circle cx="88.5" cy="640.5" r="3.5" fill="#E7F0FC"/>
<circle cx="88.5" cy="661.5" r="3.5" fill="#E7F0FC"/>
<circle cx="109.5" cy="514.5" r="3.5" fill="#E7F0FC"/>
<circle cx="109.5" cy="535.5" r="3.5" fill="#E7F0FC"/>
<circle cx="109.5" cy="556.5" r="3.5" fill="#E7F0FC"/>
<circle cx="109.5" cy="577.5" r="3.5" fill="#E7F0FC"/>
<circle cx="109.5" cy="598.5" r="3.5" fill="#E7F0FC"/>
<circle cx="109.5" cy="619.5" r="3.5" fill="#E7F0FC"/>
<circle cx="109.5" cy="640.5" r="3.5" fill="#E7F0FC"/>
<circle cx="109.5" cy="661.5" r="3.5" fill="#E7F0FC"/>
<circle cx="130.5" cy="514.5" r="3.5" fill="#E7F0FC"/>
<circle cx="130.5" cy="535.5" r="3.5" fill="#E7F0FC"/>
<circle cx="130.5" cy="556.5" r="3.5" fill="#E7F0FC"/>
<circle cx="130.5" cy="577.5" r="3.5" fill="#E7F0FC"/>
<circle cx="130.5" cy="598.5" r="3.5" fill="#E7F0FC"/>
<circle cx="130.5" cy="619.5" r="3.5" fill="#E7F0FC"/>
<circle cx="130.5" cy="640.5" r="3.5" fill="#E7F0FC"/>
<circle cx="130.5" cy="661.5" r="3.5" fill="#E7F0FC"/>
<circle cx="151.5" cy="514.5" r="3.5" fill="#E7F0FC"/>
<circle cx="151.5" cy="535.5" r="3.5" fill="#E7F0FC"/>
<circle cx="151.5" cy="556.5" r="3.5" fill="#E7F0FC"/>
<circle cx="151.5" cy="577.5" r="3.5" fill="#E7F0FC"/>
<circle cx="151.5" cy="598.5" r="3.5" fill="#E7F0FC"/>
<circle cx="151.5" cy="619.5" r="3.5" fill="#E7F0FC"/>
<circle cx="151.5" cy="640.5" r="3.5" fill="#E7F0FC"/>
<circle cx="151.5" cy="661.5" r="3.5" fill="#E7F0FC"/>
<circle cx="172.5" cy="514.5" r="3.5" fill="#E7F0FC"/>
<circle cx="172.5" cy="535.5" r="3.5" fill="#E7F0FC"/>
<circle cx="172.5" cy="556.5" r="3.5" fill="#E7F0FC"/>
<circle cx="172.5" cy="577.5" r="3.5" fill="#E7F0FC"/>
<circle cx="172.5" cy="598.5" r="3.5" fill="#E7F0FC"/>
<circle cx="172.5" cy="619.5" r="3.5" fill="#E7F0FC"/>
<circle cx="172.5" cy="640.5" r="3.5" fill="#E7F0FC"/>
<circle cx="172.5" cy="661.5" r="3.5" fill="#E7F0FC"/>
<circle cx="193.5" cy="514.5" r="3.5" fill="#E7F0FC"/>
<circle cx="193.5" cy="535.5" r="3.5" fill="#E7F0FC"/>
<circle cx="193.5" cy="556.5" r="3.5" fill="#E7F0FC"/>
<circle cx="193.5" cy="577.5" r="3.5" fill="#E7F0FC"/>
<circle cx="193.5" cy="598.5" r="3.5" fill="#E7F0FC"/>
<circle cx="193.5" cy="619.5" r="3.5" fill="#E7F0FC"/>
<circle cx="193.5" cy="640.5" r="3.5" fill="#E7F0FC"/>
<circle cx="193.5" cy="661.5" r="3.5" fill="#E7F0FC"/>
<circle cx="214.5" cy="514.5" r="3.5" fill="#E7F0FC"/>
<circle cx="214.5" cy="535.5" r="3.5" fill="#E7F0FC"/>
<circle cx="214.5" cy="556.5" r="3.5" fill="#E7F0FC"/>
<circle cx="214.5" cy="577.5" r="3.5" fill="#E7F0FC"/>
<circle cx="214.5" cy="598.5" r="3.5" fill="#E7F0FC"/>
<circle cx="214.5" cy="619.5" r="3.5" fill="#E7F0FC"/>
<circle cx="214.5" cy="640.5" r="3.5" fill="#E7F0FC"/>
<circle cx="214.5" cy="661.5" r="3.5" fill="#E7F0FC"/>
<circle cx="235.5" cy="514.5" r="3.5" fill="#E7F0FC"/>
<circle cx="235.5" cy="535.5" r="3.5" fill="#E7F0FC"/>
<circle cx="235.5" cy="556.5" r="3.5" fill="#E7F0FC"/>
<circle cx="235.5" cy="577.5" r="3.5" fill="#E7F0FC"/>
<circle cx="235.5" cy="598.5" r="3.5" fill="#E7F0FC"/>
<circle cx="235.5" cy="619.5" r="3.5" fill="#E7F0FC"/>
<circle cx="235.5" cy="640.5" r="3.5" fill="#E7F0FC"/>
<circle cx="235.5" cy="661.5" r="3.5" fill="#E7F0FC"/>
<path d="M366 150C366 67.1573 433.157 0 516 0H1413V619H366V150Z" fill="#F8F9FA"/>
<path d="M178 345L0 345L6.81898e-06 267C1.16472e-05 211.772 44.7715 167 100 167L178 167L178 345Z" fill="#FFF5DB"/>
</svg>
