<svg width="122" height="122" viewBox="0 0 122 122" fill="none" xmlns="http://www.w3.org/2000/svg">
<g clip-path="url(#clip0_139_4934)">
<rect x="0.5" y="0.5" width="121" height="121" rx="16" fill="#208AE5" fill-opacity="0.1"/>
<path d="M61.4981 65.5084C61.0973 65.5084 60.6964 65.4159 60.3264 65.2001L33.1005 49.4443C31.9905 48.7968 31.6204 47.3783 32.2679 46.2683C32.9154 45.1583 34.3029 44.7883 35.4438 45.4358L61.4981 60.5134L87.3978 45.5284C88.5078 44.8809 89.9261 45.2818 90.5736 46.3609C91.2211 47.4709 90.8206 48.8892 89.7414 49.5367L62.7006 65.2001C62.2998 65.3851 61.8989 65.5084 61.4981 65.5084Z" fill="#1E88E5"/>
<path d="M61.5 93.4434C60.2358 93.4434 59.1875 92.395 59.1875 91.1309V63.165C59.1875 61.9009 60.2358 60.8525 61.5 60.8525C62.7642 60.8525 63.8125 61.9009 63.8125 63.165V91.1309C63.8125 92.395 62.7642 93.4434 61.5 93.4434Z" fill="#1E88E5"/>
<path d="M61.4966 94.6466C58.6908 94.6466 56.0083 93.9991 53.9733 92.8583L37.5083 83.7319C33.0374 81.2653 29.5225 75.3141 29.5225 70.1958V52.7442C29.5225 47.6258 33.0374 41.706 37.5083 39.2085L53.9733 30.0817C58.1666 27.7384 64.7649 27.7384 68.9891 30.0817L85.4541 39.2085C89.9249 41.6751 93.4399 47.6258 93.4399 52.7442V64.0291C93.4399 65.2933 92.3916 66.3416 91.1274 66.3416C89.8633 66.3416 88.8149 65.2933 88.8149 64.0291V52.7442C88.8149 49.3525 86.1941 44.9126 83.2341 43.2785L66.7691 34.1517C63.9633 32.5792 59.0608 32.5792 56.2549 34.1517L39.7899 43.2785C36.7991 44.9435 34.2091 49.3525 34.2091 52.7442V70.1958C34.2091 73.5875 36.8299 78.0278 39.7899 79.6619L56.2549 88.7883C58.9683 90.2991 64.0866 90.2991 66.7691 88.7883C67.8791 88.1716 69.2974 88.5728 69.9141 89.6828C70.5308 90.7928 70.1299 92.2108 69.0199 92.8275C66.9849 93.9991 64.3024 94.6466 61.4966 94.6466Z" fill="#1E88E5"/>
<path d="M83.7 92.7958C76.9784 92.7958 71.5209 87.3383 71.5209 80.6167C71.5209 73.895 76.9784 68.4375 83.7 68.4375C90.4217 68.4375 95.8792 73.895 95.8792 80.6167C95.8792 87.3383 90.4217 92.7958 83.7 92.7958ZM83.7 73.0625C79.5375 73.0625 76.1459 76.4542 76.1459 80.6167C76.1459 84.7792 79.5375 88.1708 83.7 88.1708C87.8625 88.1708 91.2542 84.7792 91.2542 80.6167C91.2542 76.4542 87.8625 73.0625 83.7 73.0625Z" fill="#1E88E5"/>
<path d="M95.4151 94.6462C94.8293 94.6462 94.2434 94.4304 93.7809 93.9679L90.6976 90.8846C89.8034 89.9904 89.8034 88.5101 90.6976 87.6159C91.5918 86.7218 93.0718 86.7218 93.9659 87.6159L97.0493 90.6993C97.9434 91.5934 97.9434 93.0737 97.0493 93.9679C96.5868 94.4304 96.0009 94.6462 95.4151 94.6462Z" fill="#1E88E5"/>
</g>
<defs>
<clipPath id="clip0_139_4934">
<rect x="0.5" y="0.5" width="121" height="121" rx="16" fill="white"/>
</clipPath>
</defs>
</svg>
