<svg width="122" height="121" viewBox="0 0 122 121" fill="none" xmlns="http://www.w3.org/2000/svg">
<g clip-path="url(#clip0_139_5186)">
<rect x="0.5" width="121" height="121" rx="16" fill="#FF9800" fill-opacity="0.1"/>
<path d="M55.6733 79.9612H43.9875C42.7234 79.9612 41.675 78.9128 41.675 77.6487V61.862C41.675 58.6553 44.2959 56.0342 47.5025 56.0342H55.6733C56.9375 56.0342 57.9858 57.0825 57.9858 58.3467V77.6175C57.9858 78.9125 56.9375 79.9612 55.6733 79.9612ZM46.3 75.3362H53.3608V60.6903H47.5025C46.855 60.6903 46.3 61.2142 46.3 61.8925V75.3362Z" fill="#FF9800"/>
<path d="M67.3262 79.9614H55.6403C54.3762 79.9614 53.3279 78.9131 53.3279 77.6489V47.8637C53.3279 44.657 55.9487 42.0361 59.1553 42.0361H63.842C67.0487 42.0361 69.6695 44.657 69.6695 47.8637V77.6489C69.6387 78.9131 68.6212 79.9614 67.3262 79.9614ZM57.9837 75.3364H65.0445V47.8637C65.0445 47.2162 64.5203 46.6611 63.842 46.6611H59.1553C58.5078 46.6611 57.9528 47.1853 57.9528 47.8637V75.3364H57.9837Z" fill="#FF9800"/>
<path d="M79.0152 79.9611H67.3293C66.0652 79.9611 65.0168 78.9128 65.0168 77.6486V63.6191C65.0168 62.355 66.0652 61.3066 67.3293 61.3066H75.5002C78.7068 61.3066 81.3277 63.9275 81.3277 67.1341V77.6486C81.3277 78.9128 80.3102 79.9611 79.0152 79.9611ZM69.6418 75.3361H76.7027V67.1341C76.7027 66.4866 76.1785 65.9316 75.5002 65.9316H69.6418V75.3361Z" fill="#FF9800"/>
<path d="M70.7501 94.1462H52.2501C35.5076 94.1462 28.3542 86.9928 28.3542 70.2503V51.7503C28.3542 35.0078 35.5076 27.8545 52.2501 27.8545H70.7501C87.4926 27.8545 94.6459 35.0078 94.6459 51.7503V70.2503C94.6459 86.9928 87.4926 94.1462 70.7501 94.1462ZM52.2501 32.4795C38.0359 32.4795 32.9792 37.5362 32.9792 51.7503V70.2503C32.9792 84.4645 38.0359 89.5212 52.2501 89.5212H70.7501C84.9643 89.5212 90.0209 84.4645 90.0209 70.2503V51.7503C90.0209 37.5362 84.9643 32.4795 70.7501 32.4795H52.2501Z" fill="#FF9800"/>
</g>
<defs>
<clipPath id="clip0_139_5186">
<rect x="0.5" width="121" height="121" rx="16" fill="white"/>
</clipPath>
</defs>
</svg>
