<svg width="18" height="18" viewBox="0 0 18 18" fill="none" xmlns="http://www.w3.org/2000/svg">
<path d="M3.75 6.75C3.35218 6.75 2.97064 6.59196 2.68934 6.31066C2.40804 6.02935 2.25 5.64782 2.25 5.25V3C2.25 2.60217 2.40804 2.22064 2.68934 1.93934C2.97064 1.65803 3.35218 1.5 3.75 1.5H6.75C7.14782 1.5 7.52936 1.65803 7.81066 1.93934C8.09196 2.22064 8.25 2.60217 8.25 3V5.25C8.25 5.64782 8.09196 6.02935 7.81066 6.31066C7.52936 6.59196 7.14782 6.75 6.75 6.75H3.75ZM3.75 5.25H6.75V3H3.75V5.25ZM3.75 16.5C3.35218 16.5 2.97064 16.342 2.68934 16.0607C2.40804 15.7794 2.25 15.3978 2.25 15V9C2.25 8.60217 2.40804 8.22064 2.68934 7.93934C2.97064 7.65803 3.35218 7.5 3.75 7.5H6.75C7.14782 7.5 7.52936 7.65803 7.81066 7.93934C8.09196 8.22064 8.25 8.60217 8.25 9V15C8.25 15.3978 8.09196 15.7794 7.81066 16.0607C7.52936 16.342 7.14782 16.5 6.75 16.5H3.75ZM3.75 15H6.75V9H3.75V15ZM9.75 15C9.75 15.3978 9.90804 15.7794 10.1893 16.0607C10.4706 16.342 10.8522 16.5 11.25 16.5H14.25C14.6478 16.5 15.0294 16.342 15.3107 16.0607C15.592 15.7794 15.75 15.3978 15.75 15V13.5C15.75 13.1022 15.592 12.7206 15.3107 12.4393C15.0294 12.158 14.6478 12 14.25 12H11.25C10.8522 12 10.4706 12.158 10.1893 12.4393C9.90804 12.7206 9.75 13.1022 9.75 13.5V15ZM14.25 15H11.25V13.5H14.25V15ZM11.25 10.5C10.8522 10.5 10.4706 10.342 10.1893 10.0607C9.90804 9.77935 9.75 9.39782 9.75 9V3C9.75 2.60217 9.90804 2.22064 10.1893 1.93934C10.4706 1.65803 10.8522 1.5 11.25 1.5H14.25C14.6478 1.5 15.0294 1.65803 15.3107 1.93934C15.592 2.22064 15.75 2.60217 15.75 3V9C15.75 9.39782 15.592 9.77935 15.3107 10.0607C15.0294 10.342 14.6478 10.5 14.25 10.5H11.25ZM11.25 9H14.25V3H11.25V9Z" fill="white"/>
</svg>
