<svg width="40" height="41" viewBox="0 0 40 41" fill="none" xmlns="http://www.w3.org/2000/svg">
<path d="M0 20.194C0 9.14806 8.95448 0 20.0004 0C31.0463 0 40.0008 9.14806 40.0008 20.194C40.0008 31.2399 31.0463 40.388 20.0004 40.388C8.95448 40.388 0 31.2399 0 20.194Z" fill="#59A7FF"/>
<path d="M10.5004 17.054L19.5004 22.254C19.6524 22.3417 19.8249 22.3879 20.0004 22.3879C20.1759 22.3879 20.3484 22.3417 20.5004 22.254L29.5004 17.054C29.6515 16.9667 29.7772 16.8414 29.8649 16.6906C29.9526 16.5397 29.9993 16.3685 30.0004 16.194C30.0011 16.0178 29.9552 15.8445 29.8674 15.6917C29.7796 15.5389 29.653 15.4121 29.5004 15.324L20.5004 10.134C20.3484 10.0462 20.1759 10 20.0004 10C19.8249 10 19.6524 10.0462 19.5004 10.134L10.5004 15.324C10.3478 15.4121 10.2212 15.5389 10.1334 15.6917C10.0456 15.8445 9.9997 16.0178 10.0004 16.194C10.0015 16.3685 10.0482 16.5397 10.1359 16.6906C10.2236 16.8414 10.3493 16.9667 10.5004 17.054ZM20.0004 12.194L27.0004 16.194L20.0004 20.194L13.0004 16.194L20.0004 12.194ZM28.5004 19.364L20.0004 24.194L11.5004 19.324C11.3863 19.2579 11.2602 19.215 11.1294 19.1978C10.9986 19.1806 10.8657 19.1895 10.7384 19.2239C10.6111 19.2582 10.4918 19.3175 10.3874 19.3982C10.2831 19.4789 10.1957 19.5794 10.1304 19.694C10 19.9236 9.96576 20.1955 10.0351 20.4502C10.1044 20.705 10.2717 20.9221 10.5004 21.054L19.5004 26.254C19.6524 26.3417 19.8249 26.388 20.0004 26.388C20.1759 26.388 20.3484 26.3417 20.5004 26.254L29.5004 21.054C29.7291 20.9221 29.8964 20.705 29.9657 20.4502C30.035 20.1955 30.0008 19.9236 29.8704 19.694C29.8051 19.5794 29.7177 19.4789 29.6134 19.3982C29.509 19.3175 29.3897 19.2582 29.2624 19.2239C29.1351 19.1895 29.0022 19.1806 28.8714 19.1978C28.7406 19.215 28.6145 19.2579 28.5004 19.324V19.364ZM28.5004 23.364L20.0004 28.194L11.5004 23.324C11.3863 23.2579 11.2602 23.215 11.1294 23.1978C10.9986 23.1806 10.8657 23.1895 10.7384 23.2239C10.6111 23.2582 10.4918 23.3175 10.3874 23.3982C10.2831 23.4789 10.1957 23.5794 10.1304 23.694C10 23.9236 9.96576 24.1955 10.0351 24.4502C10.1044 24.705 10.2717 24.9221 10.5004 25.054L19.5004 30.254C19.6524 30.3417 19.8249 30.388 20.0004 30.388C20.1759 30.388 20.3484 30.3417 20.5004 30.254L29.5004 25.054C29.7291 24.9221 29.8964 24.705 29.9657 24.4502C30.035 24.1955 30.0008 23.9236 29.8704 23.694C29.8051 23.5794 29.7177 23.4789 29.6134 23.3982C29.509 23.3175 29.3897 23.2582 29.2624 23.2239C29.1351 23.1895 29.0022 23.1806 28.8714 23.1978C28.7406 23.215 28.6145 23.2579 28.5004 23.324V23.364Z" fill="white"/>
</svg>
